<svg width="15" height="18" viewBox="0 0 15 18" fill="none" xmlns="http://www.w3.org/2000/svg">
<path d="M7.50001 13.1667C10.5517 13.1667 13.2208 14.4792 14.6725 16.4376L13.1375 17.1634C11.9558 15.7634 9.87251 14.8334 7.50001 14.8334C5.12751 14.8334 3.04417 15.7634 1.86251 17.1634L0.328339 16.4367C1.78001 14.4784 4.44834 13.1667 7.50001 13.1667ZM7.50001 0.666748C8.60507 0.666748 9.66488 1.10573 10.4463 1.88714C11.2277 2.66854 11.6667 3.72835 11.6667 4.83341V7.33341C11.6666 8.40713 11.2521 9.43938 10.5095 10.2149C9.76686 10.9904 8.75355 11.4493 7.68084 11.4959L7.50001 11.5001C6.39494 11.5001 5.33513 11.0611 4.55373 10.2797C3.77233 9.49829 3.33334 8.43848 3.33334 7.33341V4.83341C3.3334 3.7597 3.74796 2.72745 4.49055 1.95193C5.23315 1.17642 6.24646 0.717514 7.31917 0.670915L7.50001 0.666748ZM7.50001 2.33341C6.86233 2.33338 6.24874 2.57702 5.78479 3.01448C5.32083 3.45195 5.04158 4.05017 5.00417 4.68675L5.00001 4.83341V7.33341C4.99938 7.98417 5.25252 8.60952 5.70565 9.0766C6.15877 9.54367 6.77617 9.81565 7.42664 9.83475C8.07712 9.85384 8.7094 9.61855 9.18915 9.17886C9.66889 8.73918 9.95829 8.12975 9.99584 7.48008L10 7.33341V4.83341C10 4.17037 9.73661 3.53449 9.26777 3.06565C8.79893 2.59681 8.16305 2.33341 7.50001 2.33341Z" fill="#8393A9"/>
</svg>
